<svg width="32" height="33" viewBox="0 0 32 33" fill="none" xmlns="http://www.w3.org/2000/svg">
<path d="M25.3333 4.3289H19.76C19.2 2.78223 17.7333 1.66223 16 1.66223C14.2667 1.66223 12.8 2.78223 12.24 4.3289H6.66667C5.2 4.3289 4 5.5289 4 6.99556V25.6622C4 27.1289 5.2 28.3289 6.66667 28.3289H25.3333C26.8 28.3289 28 27.1289 28 25.6622V6.99556C28 5.5289 26.8 4.3289 25.3333 4.3289ZM16 4.3289C16.7333 4.3289 17.3333 4.9289 17.3333 5.66223C17.3333 6.39556 16.7333 6.99556 16 6.99556C15.2667 6.99556 14.6667 6.39556 14.6667 5.66223C14.6667 4.9289 15.2667 4.3289 16 4.3289ZM18.6667 22.9956H9.33333V20.3289H18.6667V22.9956ZM22.6667 17.6622H9.33333V14.9956H22.6667V17.6622ZM22.6667 12.3289H9.33333V9.66223H22.6667V12.3289Z" fill="#F4F4F4"/>
</svg>
