<svg width="32" height="33" viewBox="0 0 32 33" fill="none" xmlns="http://www.w3.org/2000/svg">
<path d="M24 20.3289H21.3333V22.9955H24M24 14.9955H21.3333V17.6622H24M26.6667 25.6622H16V22.9955H18.6667V20.3289H16V17.6622H18.6667V14.9955H16V12.3289H26.6667M13.3333 9.66219H10.6667V6.99552H13.3333M13.3333 14.9955H10.6667V12.3289H13.3333M13.3333 20.3289H10.6667V17.6622H13.3333M13.3333 25.6622H10.6667V22.9955H13.3333M8 9.66219H5.33333V6.99552H8M8 14.9955H5.33333V12.3289H8M8 20.3289H5.33333V17.6622H8M8 25.6622H5.33333V22.9955H8M16 9.66219V4.32886H2.66666V28.3289H29.3333V9.66219H16Z" fill="#F4F4F4"/>
</svg>
