<svg width="25" height="32" viewBox="0 0 25 32" fill="none" xmlns="http://www.w3.org/2000/svg">
<g clip-path="url(#clip0_51_306)">
<path fill-rule="evenodd" clip-rule="evenodd" d="M5.71908 15.9999C5.71908 16.7072 5.43812 17.3854 4.93803 17.8855C4.43793 18.3856 3.75965 18.6666 3.05241 18.6666C2.34516 18.6666 1.66689 18.3856 1.16679 17.8855C0.666694 17.3854 0.385742 16.7072 0.385742 15.9999C0.385742 15.2927 0.666694 14.6144 1.16679 14.1143C1.66689 13.6142 2.34516 13.3333 3.05241 13.3333C3.75965 13.3333 4.43793 13.6142 4.93803 14.1143C5.43812 14.6144 5.71908 15.2927 5.71908 15.9999ZM12.3857 13.3333C13.093 13.3333 13.7713 13.6142 14.2714 14.1143C14.7715 14.6144 15.0524 15.2927 15.0524 15.9999C15.0524 16.7072 14.7715 17.3854 14.2714 17.8855C13.7713 18.3856 13.093 18.6666 12.3857 18.6666C11.6785 18.6666 11.0002 18.3856 10.5001 17.8855C10 17.3854 9.71908 16.7072 9.71908 15.9999C9.71908 15.2927 10 14.6144 10.5001 14.1143C11.0002 13.6142 11.6785 13.3333 12.3857 13.3333ZM21.7191 13.3333C22.4263 13.3333 23.1046 13.6142 23.6047 14.1143C24.1048 14.6144 24.3857 15.2927 24.3857 15.9999C24.3857 16.7072 24.1048 17.3854 23.6047 17.8855C23.1046 18.3856 22.4263 18.6666 21.7191 18.6666C21.0118 18.6666 20.3336 18.3856 19.8335 17.8855C19.3334 17.3854 19.0524 16.7072 19.0524 15.9999C19.0524 15.2927 19.3334 14.6144 19.8335 14.1143C20.3336 13.6142 21.0118 13.3333 21.7191 13.3333Z" fill="#99A1FF"/>
</g>
<defs>
<clipPath id="clip0_51_306">
<rect width="24" height="30.8571" fill="white" transform="translate(0.385742 0.571411)"/>
</clipPath>
</defs>
</svg>
