<svg width="50" height="51" viewBox="0 0 50 51" fill="none" xmlns="http://www.w3.org/2000/svg">
<path d="M12.8333 23.4166C12.8333 13.4166 21.1666 10.9166 25.3333 10.9166C35.3333 10.9166 37.8333 19.25 37.8333 23.4166V31.75L42 35.9166H8.66663L12.8333 31.75V23.4166Z" fill="#FCB986"/>
<path d="M25.3333 10.9167C21.1666 10.9167 12.8333 13.4167 12.8333 23.4167V31.75L8.66663 35.9167H42L37.8333 31.75V23.4167C37.8333 19.25 35.3333 10.9167 25.3333 10.9167ZM25.3333 10.9167V6.75V10.9167ZM19.0833 38C19.0833 40.0833 20.3333 44.25 25.3333 44.25C30.3333 44.25 31.5833 40.0833 31.5833 38" fill="#FCB986"/>
<path d="M25.3333 10.9167C21.1666 10.9167 12.8333 13.4167 12.8333 23.4167V31.75L8.66663 35.9167H42L37.8333 31.75V23.4167C37.8333 19.25 35.3333 10.9167 25.3333 10.9167ZM25.3333 10.9167V6.75M19.0833 38C19.0833 40.0833 20.3333 44.25 25.3333 44.25C30.3333 44.25 31.5833 40.0833 31.5833 38" stroke="#F4F4F4" stroke-width="2" stroke-linecap="round" stroke-linejoin="round"/>
</svg>
