<svg width="32" height="32" viewBox="0 0 32 32" fill="none" xmlns="http://www.w3.org/2000/svg">
<path d="M19.5293 5.44138C19.5651 5.58902 19.6352 5.72614 19.734 5.84158C19.8327 5.95702 19.9573 6.04752 20.0976 6.10573C20.238 6.16393 20.39 6.1882 20.5415 6.17656C20.693 6.16491 20.8396 6.11769 20.9693 6.03872C24.2213 4.05872 27.9427 7.77872 25.9627 11.0307C25.8837 11.1604 25.8364 11.3069 25.8247 11.4583C25.813 11.6097 25.8371 11.7617 25.8952 11.902C25.9533 12.0423 26.0436 12.1669 26.1589 12.2657C26.2742 12.3645 26.4111 12.4348 26.5587 12.4707C30.2587 13.368 30.2587 18.6307 26.5587 19.5294C26.411 19.5652 26.2739 19.6353 26.1585 19.734C26.043 19.8328 25.9525 19.9574 25.8943 20.0977C25.8361 20.238 25.8119 20.3901 25.8235 20.5416C25.8351 20.693 25.8824 20.8396 25.9613 20.9694C27.9413 24.2214 24.2213 27.9427 20.9693 25.9627C20.8397 25.8837 20.6932 25.8365 20.5418 25.8247C20.3904 25.813 20.2384 25.8372 20.0981 25.8952C19.9578 25.9533 19.8331 26.0437 19.7343 26.1589C19.6355 26.2742 19.5653 26.4112 19.5293 26.5587C18.632 30.2587 13.3693 30.2587 12.4707 26.5587C12.4349 26.4111 12.3648 26.274 12.266 26.1585C12.1673 26.0431 12.0427 25.9526 11.9024 25.8944C11.762 25.8362 11.61 25.8119 11.4585 25.8235C11.307 25.8352 11.1604 25.8824 11.0307 25.9614C7.77867 27.9414 4.05734 24.2214 6.03734 20.9694C6.11631 20.8397 6.16358 20.6932 6.17531 20.5418C6.18703 20.3904 6.16288 20.2384 6.10481 20.0981C6.04674 19.9578 5.9564 19.8332 5.84111 19.7344C5.72583 19.6356 5.58886 19.5653 5.44134 19.5294C1.74134 18.632 1.74134 13.3694 5.44134 12.4707C5.58898 12.4349 5.72609 12.3648 5.84153 12.2661C5.95697 12.1673 6.04747 12.0427 6.10568 11.9024C6.16389 11.7621 6.18815 11.61 6.17651 11.4585C6.16487 11.3071 6.11764 11.1605 6.03867 11.0307C4.05867 7.77872 7.77867 4.05738 11.0307 6.03738C11.1602 6.11695 11.3068 6.16471 11.4583 6.17674C11.6099 6.18876 11.7622 6.16472 11.9026 6.10658C12.0431 6.04843 12.1678 5.95784 12.2666 5.84222C12.3653 5.7266 12.4352 5.58924 12.4707 5.44138C13.368 1.74138 18.6307 1.74138 19.5293 5.44138ZM16 12C14.9391 12 13.9217 12.4215 13.1716 13.1716C12.4214 13.9218 12 14.9392 12 16C12 17.0609 12.4214 18.0783 13.1716 18.8285C13.9217 19.5786 14.9391 20 16 20C17.0609 20 18.0783 19.5786 18.8284 18.8285C19.5786 18.0783 20 17.0609 20 16C20 14.9392 19.5786 13.9218 18.8284 13.1716C18.0783 12.4215 17.0609 12 16 12Z" fill="#F4F4F4"/>
</svg>
