<svg width="29" height="32" viewBox="0 0 29 32" fill="none" xmlns="http://www.w3.org/2000/svg">
<g clip-path="url(#clip0_51_290)">
<path d="M23.7571 31.4285C22.4714 31.4285 21.3785 30.9785 20.4785 30.0785C19.5785 29.1785 19.1285 28.0857 19.1285 26.8C19.1285 26.6457 19.1671 26.2857 19.2443 25.72L8.40569 19.3943C7.99426 19.78 7.51854 20.0824 6.97854 20.3015C6.43854 20.5205 5.85997 20.6296 5.24283 20.6285C3.95711 20.6285 2.86426 20.1785 1.96426 19.2785C1.06426 18.3785 0.614258 17.2857 0.614258 16C0.614258 14.7143 1.06426 13.6214 1.96426 12.7214C2.86426 11.8214 3.95711 11.3714 5.24283 11.3714C5.85997 11.3714 6.43854 11.481 6.97854 11.7C7.51854 11.9191 7.99426 12.221 8.40569 12.6057L19.2443 6.27998C19.1928 6.09998 19.1609 5.92667 19.1486 5.76004C19.1363 5.59341 19.1296 5.40672 19.1285 5.19998C19.1285 3.91427 19.5785 2.82141 20.4785 1.92141C21.3785 1.02141 22.4714 0.571411 23.7571 0.571411C25.0428 0.571411 26.1357 1.02141 27.0357 1.92141C27.9357 2.82141 28.3857 3.91427 28.3857 5.19998C28.3857 6.4857 27.9357 7.57855 27.0357 8.47855C26.1357 9.37855 25.0428 9.82855 23.7571 9.82855C23.14 9.82855 22.5614 9.71901 22.0214 9.49992C21.4814 9.28084 21.0057 8.97895 20.5943 8.59427L9.75569 14.92C9.80711 15.1 9.83951 15.2738 9.85289 15.4415C9.86626 15.6091 9.87243 15.7953 9.8714 16C9.87037 16.2047 9.8642 16.3914 9.85289 16.56C9.84157 16.7287 9.80917 16.902 9.75569 17.08L20.5943 23.4057C21.0057 23.02 21.4814 22.7181 22.0214 22.5C22.5614 22.282 23.14 22.1724 23.7571 22.1714C25.0428 22.1714 26.1357 22.6214 27.0357 23.5214C27.9357 24.4214 28.3857 25.5143 28.3857 26.8C28.3857 28.0857 27.9357 29.1785 27.0357 30.0785C26.1357 30.9785 25.0428 31.4285 23.7571 31.4285Z" fill="#99A1FF"/>
</g>
<defs>
<clipPath id="clip0_51_290">
<rect width="27.7714" height="30.8571" fill="white" transform="translate(0.614258 0.571411)"/>
</clipPath>
</defs>
</svg>
