<svg width="33" height="33" viewBox="0 0 33 33" fill="none" xmlns="http://www.w3.org/2000/svg">
<path d="M15.4867 14.7199C18.658 14.7199 21.2289 12.149 21.2289 8.9777C21.2289 5.80635 18.658 3.23547 15.4867 3.23547C12.3153 3.23547 9.74445 5.80635 9.74445 8.9777C9.74445 12.149 12.3153 14.7199 15.4867 14.7199Z" fill="#F4F4F4"/>
<path d="M19.1667 25.2178H25.3889V26.4622H19.1667V25.2178Z" fill="#F4F4F4"/>
<path d="M13.8333 26.9955V29.6622C13.8333 29.8979 13.927 30.124 14.0937 30.2907C14.2604 30.4574 14.4865 30.551 14.7222 30.551H29.8333C30.0691 30.551 30.2952 30.4574 30.4619 30.2907C30.6286 30.124 30.7222 29.8979 30.7222 29.6622V20.7733C30.7222 20.5375 30.6286 20.3114 30.4619 20.1447C30.2952 19.978 30.0691 19.8844 29.8333 19.8844H23.6111V18.5777C23.6111 18.342 23.5175 18.1159 23.3508 17.9492C23.1841 17.7825 22.958 17.6888 22.7222 17.6888C22.4865 17.6888 22.2604 17.7825 22.0937 17.9492C21.927 18.1159 21.8333 18.342 21.8333 18.5777V19.8844H20.0556V16.7022C18.5451 16.455 17.0172 16.3301 15.4867 16.3288C12.1114 16.3145 8.77391 17.0396 5.70889 18.4533C5.20443 18.6913 4.77885 19.0691 4.48264 19.5418C4.18644 20.0144 4.03204 20.5622 4.03777 21.1199V26.9955H13.8333ZM28.9444 28.7733H15.6111V21.6622H21.8333V22.0355C21.8333 22.2712 21.927 22.4973 22.0937 22.664C22.2604 22.8307 22.4865 22.9244 22.7222 22.9244C22.958 22.9244 23.1841 22.8307 23.3508 22.664C23.5175 22.4973 23.6111 22.2712 23.6111 22.0355V21.6622H28.9444V28.7733Z" fill="#F4F4F4"/>
</svg>
